<?xml version="1.0" encoding="UTF-8"?>
<svg xmlns="http://www.w3.org/2000/svg" xmlns:xlink="http://www.w3.org/1999/xlink" width="24pt" height="24pt" viewBox="0 0 24 24" version="1.1">
<g id="surface14702269">
<path style=" stroke:none;fill-rule:nonzero;fill:rgb(20%,20%,20%);fill-opacity:1;" d="M 21 3 L 3 3 L 3 21 L 21 21 Z M 9 17 L 6.476562 17 L 6.476562 10 L 9 10 Z M 7.695312 8.71875 C 6.921875 8.71875 6.40625 8.203125 6.40625 7.515625 C 6.40625 6.832031 6.921875 6.316406 7.777344 6.316406 C 8.550781 6.316406 9.066406 6.832031 9.066406 7.515625 C 9.066406 8.203125 8.550781 8.71875 7.695312 8.71875 Z M 18 17 L 15.558594 17 L 15.558594 13.175781 C 15.558594 12.117188 14.90625 11.871094 14.664062 11.871094 C 14.417969 11.871094 13.605469 12.035156 13.605469 13.175781 C 13.605469 13.335938 13.605469 17 13.605469 17 L 11.082031 17 L 11.082031 10 L 13.605469 10 L 13.605469 10.976562 C 13.929688 10.40625 14.582031 10 15.800781 10 C 17.023438 10 18 10.976562 18 13.175781 Z M 18 17 "/>
</g>
</svg>
